# Blender v2.78 (sub 0) OBJ File: ''
# www.blender.org
mtllib coin.mtl
o Circle
v -0.062500 0.000000 -0.500000
v -0.062500 0.097545 -0.490393
v -0.062500 0.191342 -0.461940
v -0.062500 0.277785 -0.415735
v -0.062500 0.353553 -0.353553
v -0.062500 0.415735 -0.277785
v -0.062500 0.461940 -0.191342
v -0.062500 0.490393 -0.097545
v -0.062500 0.500000 -0.000000
v -0.062500 0.490393 0.097545
v -0.062500 0.461940 0.191342
v -0.062500 0.415735 0.277785
v -0.062500 0.353553 0.353553
v -0.062500 0.277785 0.415735
v -0.062500 0.191342 0.461940
v -0.062500 0.097545 0.490393
v -0.062500 -0.000000 0.500000
v -0.062500 -0.097545 0.490393
v -0.062500 -0.191342 0.461940
v -0.062500 -0.277785 0.415735
v -0.062500 -0.353554 0.353553
v -0.062500 -0.415735 0.277785
v -0.062500 -0.461940 0.191341
v -0.062500 -0.490393 0.097545
v -0.062500 -0.500000 -0.000000
v -0.062500 -0.490393 -0.097546
v -0.062500 -0.461940 -0.191342
v -0.062500 -0.415734 -0.277786
v -0.062500 -0.353553 -0.353554
v -0.062500 -0.277785 -0.415735
v -0.062500 -0.191341 -0.461940
v -0.062500 -0.097544 -0.490393
v 0.062500 0.000000 -0.500000
v 0.062500 0.097545 -0.490393
v 0.062500 0.191342 -0.461940
v 0.062500 0.277785 -0.415735
v 0.062500 0.353553 -0.353553
v 0.062500 0.415735 -0.277785
v 0.062500 0.461940 -0.191342
v 0.062500 0.490393 -0.097545
v 0.062500 0.500000 -0.000000
v 0.062500 0.490393 0.097545
v 0.062500 0.461940 0.191342
v 0.062500 0.415735 0.277785
v 0.062500 0.353553 0.353553
v 0.062500 0.277785 0.415735
v 0.062500 0.191342 0.461940
v 0.062500 0.097545 0.490393
v 0.062500 -0.000000 0.500000
v 0.062500 -0.097545 0.490393
v 0.062500 -0.191342 0.461940
v 0.062500 -0.277785 0.415735
v 0.062500 -0.353554 0.353553
v 0.062500 -0.415735 0.277785
v 0.062500 -0.461940 0.191341
v 0.062500 -0.490393 0.097545
v 0.062500 -0.500000 -0.000000
v 0.062500 -0.490393 -0.097546
v 0.062500 -0.461940 -0.191342
v 0.062500 -0.415734 -0.277786
v 0.062500 -0.353553 -0.353554
v 0.062500 -0.277785 -0.415735
v 0.062500 -0.191341 -0.461940
v 0.062500 -0.097544 -0.490393
vt 0.0523 0.5441
vt 0.0523 0.4559
vt 0.0695 0.3694
vt 0.1033 0.2880
vt 0.1523 0.2146
vt 0.2146 0.1523
vt 0.2880 0.1033
vt 0.3694 0.0695
vt 0.4559 0.0523
vt 0.5441 0.0523
vt 0.6306 0.0695
vt 0.7120 0.1033
vt 0.7854 0.1523
vt 0.8477 0.2146
vt 0.8967 0.2880
vt 0.9305 0.3694
vt 0.9477 0.4559
vt 0.9477 0.5441
vt 0.9305 0.6306
vt 0.8967 0.7120
vt 0.8477 0.7854
vt 0.7854 0.8477
vt 0.7120 0.8967
vt 0.6306 0.9305
vt 0.5441 0.9477
vt 0.4559 0.9477
vt 0.3694 0.9305
vt 0.2880 0.8967
vt 0.2146 0.8477
vt 0.1523 0.7854
vt 0.1033 0.7120
vt 0.0695 0.6306
vt 0.9299 0.6304
vt 0.8962 0.7118
vt 0.8473 0.7850
vt 0.7850 0.8473
vt 0.7118 0.8962
vt 0.6304 0.9299
vt 0.5440 0.9471
vt 0.4560 0.9471
vt 0.3696 0.9299
vt 0.2882 0.8962
vt 0.2150 0.8473
vt 0.1527 0.7850
vt 0.1038 0.7118
vt 0.0701 0.6304
vt 0.0529 0.5440
vt 0.0529 0.4560
vt 0.0701 0.3696
vt 0.1038 0.2882
vt 0.1527 0.2150
vt 0.2150 0.1527
vt 0.2882 0.1038
vt 0.3696 0.0701
vt 0.4560 0.0529
vt 0.5440 0.0529
vt 0.6304 0.0701
vt 0.7118 0.1038
vt 0.7850 0.1527
vt 0.8473 0.2150
vt 0.8962 0.2882
vt 0.9299 0.3696
vt 0.9471 0.4560
vt 0.9471 0.5440
vt 0.2926 0.8962
vt 0.2204 0.8470
vt 0.2270 0.8407
vt 0.2973 0.8894
vt 0.7096 0.8962
vt 0.6297 0.9300
vt 0.6256 0.9244
vt 0.7035 0.8915
vt 0.5433 0.0527
vt 0.6284 0.0700
vt 0.6264 0.0769
vt 0.5436 0.0595
vt 0.1590 0.7846
vt 0.1672 0.7790
vt 0.5448 0.9473
vt 0.5428 0.9409
vt 0.7086 0.1039
vt 0.7045 0.1105
vt 0.1108 0.7112
vt 0.1202 0.7066
vt 0.4580 0.9473
vt 0.4583 0.9405
vt 0.7807 0.1532
vt 0.7746 0.1591
vt 0.0775 0.6298
vt 0.0879 0.6262
vt 0.8418 0.2158
vt 0.8340 0.2208
vt 0.0605 0.5434
vt 0.0714 0.5411
vt 0.8895 0.2893
vt 0.8803 0.2932
vt 0.0605 0.4554
vt 0.0716 0.4545
vt 0.9220 0.3707
vt 0.9117 0.3736
vt 0.0775 0.3691
vt 0.0885 0.3696
vt 0.9385 0.4569
vt 0.9276 0.4589
vt 0.1108 0.2878
vt 0.1212 0.2896
vt 0.9385 0.5445
vt 0.9277 0.5458
vt 0.1590 0.2148
vt 0.1686 0.2177
vt 0.9220 0.6305
vt 0.9114 0.6307
vt 0.2200 0.1527
vt 0.2283 0.1565
vt 0.8894 0.7116
vt 0.8794 0.7107
vt 0.2918 0.1037
vt 0.2984 0.1085
vt 0.8419 0.7848
vt 0.8329 0.7826
vt 0.3716 0.0699
vt 0.3763 0.0756
vt 0.3729 0.9300
vt 0.3754 0.9231
vt 0.7812 0.8471
vt 0.7735 0.8436
vt 0.4566 0.0527
vt 0.4591 0.0591
vn -0.6857 0.1420 -0.7139
vn -0.6857 0.0000 -0.7279
vn -0.6857 -0.1420 -0.7139
vn -0.6857 -0.2785 -0.6725
vn -0.6857 -0.4044 -0.6052
vn -0.6857 -0.5147 -0.5147
vn -0.6857 -0.6052 -0.4044
vn -0.6857 -0.6725 -0.2785
vn -0.6857 -0.7139 -0.1420
vn -0.6857 -0.7279 0.0000
vn -0.6857 -0.7139 0.1420
vn -0.6857 -0.6725 0.2785
vn -0.6857 -0.6052 0.4044
vn -0.6857 -0.5147 0.5147
vn -0.6857 -0.4044 0.6052
vn -0.6857 -0.2785 0.6725
vn -0.6857 -0.1420 0.7139
vn -0.6857 0.0000 0.7279
vn -0.6857 0.1420 0.7139
vn -0.6857 0.2785 0.6725
vn -0.6857 0.4044 0.6052
vn -0.6857 0.5147 0.5147
vn -0.6857 0.6052 0.4044
vn -0.6857 0.6725 0.2785
vn -0.6857 0.7139 0.1420
vn -0.6857 0.7279 0.0000
vn -0.6857 0.7139 -0.1420
vn -0.6857 0.6725 -0.2785
vn -0.6857 0.6052 -0.4044
vn -0.6857 0.5147 -0.5147
vn -0.6857 0.4044 -0.6052
vn -0.6857 0.2785 -0.6725
vn 0.6857 0.1420 -0.7139
vn 0.6857 0.2785 -0.6725
vn 0.6857 0.4044 -0.6052
vn 0.6857 0.5147 -0.5147
vn 0.6857 0.6052 -0.4044
vn 0.6857 0.6725 -0.2785
vn 0.6857 0.7139 -0.1420
vn 0.6857 0.7279 0.0000
vn 0.6857 0.7139 0.1420
vn 0.6857 0.6725 0.2785
vn 0.6857 0.6052 0.4044
vn 0.6857 0.5147 0.5147
vn 0.6857 0.4044 0.6052
vn 0.6857 0.2785 0.6725
vn 0.6857 0.1420 0.7139
vn 0.6857 0.0000 0.7279
vn 0.6857 -0.1420 0.7139
vn 0.6857 -0.2785 0.6725
vn 0.6857 -0.4044 0.6052
vn 0.6857 -0.5147 0.5147
vn 0.6857 -0.6052 0.4044
vn 0.6857 -0.6725 0.2785
vn 0.6857 -0.7139 0.1420
vn 0.6857 -0.7279 0.0000
vn 0.6857 -0.7139 -0.1420
vn 0.6857 -0.6725 -0.2785
vn 0.6857 -0.6052 -0.4044
vn 0.6857 -0.5147 -0.5147
vn 0.6857 -0.4044 -0.6052
vn 0.6857 -0.2785 -0.6725
vn 0.6857 -0.1420 -0.7139
vn 0.6857 0.0000 -0.7279
usemtl Material.002
s 1
f 2/1/1 1/2/2 32/3/3 31/4/4 30/5/5 29/6/6 28/7/7 27/8/8 26/9/9 25/10/10 24/11/11 23/12/12 22/13/13 21/14/14 20/15/15 19/16/16 18/17/17 17/18/18 16/19/19 15/20/20 14/21/21 13/22/22 12/23/23 11/24/24 10/25/25 9/26/26 8/27/27 7/28/28 6/29/29 5/30/30 4/31/31 3/32/32
f 34/33/33 35/34/34 36/35/35 37/36/36 38/37/37 39/38/38 40/39/39 41/40/40 42/41/41 43/42/42 44/43/43 45/44/44 46/45/45 47/46/46 48/47/47 49/48/48 50/49/49 51/50/50 52/51/51 53/52/52 54/53/53 55/54/54 56/55/55 57/56/56 58/57/57 59/58/58 60/59/59 61/60/60 62/61/61 63/62/62 64/63/63 33/64/64
usemtl Material.002_NONE
f 3/65/32 4/66/31 36/67/35 35/68/34
f 30/69/5 31/70/4 63/71/62 62/72/61
f 17/73/18 18/74/17 50/75/49 49/76/48
f 4/66/31 5/77/30 37/78/36 36/67/35
f 31/70/4 32/79/3 64/80/63 63/71/62
f 18/74/17 19/81/16 51/82/50 50/75/49
f 5/77/30 6/83/29 38/84/37 37/78/36
f 32/79/3 1/85/2 33/86/64 64/80/63
f 19/81/16 20/87/15 52/88/51 51/82/50
f 6/83/29 7/89/28 39/90/38 38/84/37
f 20/87/15 21/91/14 53/92/52 52/88/51
f 7/89/28 8/93/27 40/94/39 39/90/38
f 21/91/14 22/95/13 54/96/53 53/92/52
f 8/93/27 9/97/26 41/98/40 40/94/39
f 22/95/13 23/99/12 55/100/54 54/96/53
f 9/97/26 10/101/25 42/102/41 41/98/40
f 23/99/12 24/103/11 56/104/55 55/100/54
f 10/101/25 11/105/24 43/106/42 42/102/41
f 24/103/11 25/107/10 57/108/56 56/104/55
f 11/105/24 12/109/23 44/110/43 43/106/42
f 25/107/10 26/111/9 58/112/57 57/108/56
f 12/109/23 13/113/22 45/114/44 44/110/43
f 26/111/9 27/115/8 59/116/58 58/112/57
f 13/113/22 14/117/21 46/118/45 45/114/44
f 27/115/8 28/119/7 60/120/59 59/116/58
f 14/117/21 15/121/20 47/122/46 46/118/45
f 1/85/2 2/123/1 34/124/33 33/86/64
f 28/119/7 29/125/6 61/126/60 60/120/59
f 15/121/20 16/127/19 48/128/47 47/122/46
f 2/123/1 3/65/32 35/68/34 34/124/33
f 29/125/6 30/69/5 62/72/61 61/126/60
f 16/127/19 17/73/18 49/76/48 48/128/47
