# Blender v2.78 (sub 0) OBJ File: 'goldCoin.blend'
# www.blender.org
mtllib coin.mtl
o coin.001_Circle.001
v -0.125954 0.069961 0.033301
v -0.141848 0.110307 0.033301
v -0.082551 0.213006 0.033301
v 0.078832 0.213006 0.033301
v 0.078832 -0.213682 0.033301
v -0.082551 -0.213682 0.033301
v -0.082551 0.069961 0.033301
v -0.144733 0.042379 0.011869
v -0.125954 0.069961 0.033301
v -0.172387 0.112577 0.011869
v -0.141848 0.110307 0.033301
v -0.098475 0.240588 0.011869
v -0.082551 0.213006 0.033301
v 0.106414 0.240588 0.011869
v 0.078832 0.213006 0.033301
v 0.106414 -0.241264 0.011869
v 0.078832 -0.213682 0.033301
v -0.110133 -0.241264 0.011869
v -0.082551 -0.213682 0.033301
v -0.110133 0.042379 0.011869
v -0.082551 0.069961 0.033301
v 0.097602 0.490378 -0.040130
v 0.191398 0.461926 -0.040130
v 0.277842 0.415721 -0.040130
v 0.353610 0.353539 -0.040130
v 0.415792 0.277771 -0.040130
v 0.461997 0.191328 -0.040130
v 0.490450 0.097531 -0.040130
v 0.500057 -0.000014 -0.040130
v 0.490450 -0.097559 -0.040130
v 0.461997 -0.191356 -0.040130
v 0.415792 -0.277799 -0.040130
v 0.353611 -0.353568 -0.040130
v 0.277843 -0.415749 -0.040130
v 0.191399 -0.461954 -0.040130
v 0.097603 -0.490407 -0.040130
v 0.000057 -0.500014 -0.040130
v -0.097488 -0.490407 -0.040130
v -0.191284 -0.461954 -0.040130
v -0.277728 -0.415749 -0.040130
v -0.353496 -0.353568 -0.040130
v -0.415678 -0.277800 -0.040130
v -0.461883 -0.191356 -0.040130
v -0.490335 -0.097560 -0.040130
v -0.499943 -0.000014 -0.040130
v -0.490335 0.097531 -0.040130
v -0.461883 0.191327 -0.040130
v -0.415678 0.277771 -0.040130
v -0.353496 0.353539 -0.040130
v -0.277728 0.415720 -0.040130
v -0.191284 0.461925 -0.040130
v -0.097488 0.490378 -0.040130
v 0.000057 0.499986 -0.040130
v 0.000057 0.410788 -0.040130
v -0.080086 0.402895 -0.040130
v -0.157150 0.379518 -0.040130
v -0.228173 0.341556 -0.040130
v -0.290424 0.290467 -0.040130
v -0.341513 0.228215 -0.040130
v -0.379475 0.157193 -0.040130
v -0.402852 0.080129 -0.040130
v -0.410746 -0.000014 -0.040130
v -0.402852 -0.080158 -0.040130
v -0.379475 -0.157222 -0.040130
v -0.341513 -0.228244 -0.040130
v -0.290424 -0.290496 -0.040130
v -0.228173 -0.341585 -0.040130
v -0.157150 -0.379547 -0.040130
v -0.080086 -0.402924 -0.040130
v 0.000057 -0.410817 -0.040130
v 0.080201 -0.402924 -0.040130
v 0.157265 -0.379547 -0.040130
v 0.228287 -0.341584 -0.040130
v 0.290539 -0.290496 -0.040130
v 0.341628 -0.228244 -0.040130
v 0.379590 -0.157222 -0.040130
v 0.402967 -0.080158 -0.040130
v 0.410860 -0.000014 -0.040130
v 0.402967 0.080130 -0.040130
v 0.379589 0.157193 -0.040130
v 0.341627 0.228216 -0.040130
v 0.290538 0.290467 -0.040130
v 0.228287 0.341556 -0.040130
v 0.157264 0.379518 -0.040130
v 0.080200 0.402895 -0.040130
v 0.097602 0.490378 0.037870
v 0.191398 0.461926 0.037870
v 0.277842 0.415721 0.037870
v 0.353610 0.353539 0.037870
v 0.415792 0.277771 0.037870
v 0.461997 0.191328 0.037870
v 0.490450 0.097531 0.037870
v 0.500057 -0.000014 0.037870
v 0.490450 -0.097559 0.037870
v 0.461997 -0.191356 0.037870
v 0.415792 -0.277799 0.037870
v 0.353611 -0.353568 0.037870
v 0.277843 -0.415749 0.037870
v 0.191399 -0.461954 0.037870
v 0.097603 -0.490407 0.037870
v 0.000057 -0.500014 0.037870
v -0.097488 -0.490407 0.037870
v -0.191284 -0.461954 0.037870
v -0.277728 -0.415749 0.037870
v -0.353496 -0.353568 0.037870
v -0.415678 -0.277800 0.037870
v -0.461883 -0.191356 0.037870
v -0.490335 -0.097560 0.037870
v -0.499943 -0.000014 0.037870
v -0.490335 0.097531 0.037870
v -0.461883 0.191327 0.037870
v -0.415678 0.277771 0.037870
v -0.353496 0.353539 0.037870
v -0.277728 0.415720 0.037870
v -0.191284 0.461925 0.037870
v -0.097488 0.490378 0.037870
v 0.000057 0.499986 0.037870
v 0.000057 0.410788 0.037870
v -0.080086 0.402895 0.037870
v -0.157150 0.379518 0.037870
v -0.228173 0.341556 0.037870
v -0.290424 0.290467 0.037870
v -0.341513 0.228215 0.037870
v -0.379475 0.157193 0.037870
v -0.402852 0.080129 0.037870
v -0.410746 -0.000014 0.037870
v -0.402852 -0.080158 0.037870
v -0.379475 -0.157222 0.037870
v -0.341513 -0.228244 0.037870
v -0.290424 -0.290496 0.037870
v -0.228173 -0.341585 0.037870
v -0.157150 -0.379547 0.037870
v -0.080086 -0.402924 0.037870
v 0.000057 -0.410817 0.037870
v 0.080201 -0.402924 0.037870
v 0.157265 -0.379547 0.037870
v 0.228287 -0.341584 0.037870
v 0.290539 -0.290496 0.037870
v 0.341628 -0.228244 0.037870
v 0.379590 -0.157222 0.037870
v 0.402967 -0.080158 0.037870
v 0.410860 -0.000014 0.037870
v 0.402967 0.080130 0.037870
v 0.379589 0.157193 0.037870
v 0.341627 0.228216 0.037870
v 0.290538 0.290467 0.037870
v 0.228287 0.341556 0.037870
v 0.157264 0.379518 0.037870
v 0.080200 0.402895 0.037870
v 0.080201 -0.402924 -0.014130
v 0.080201 -0.402924 0.011870
v 0.000057 -0.410817 -0.014130
v 0.000057 -0.410817 0.011870
v -0.080086 -0.402924 -0.014130
v -0.080086 -0.402924 0.011870
v -0.157150 -0.379547 -0.014130
v -0.157150 -0.379547 0.011870
v -0.228173 -0.341585 -0.014130
v -0.228173 -0.341585 0.011870
v -0.290424 -0.290496 -0.014130
v -0.290424 -0.290496 0.011870
v -0.341513 -0.228244 -0.014130
v -0.341513 -0.228244 0.011870
v -0.379475 -0.157222 -0.014130
v -0.379475 -0.157222 0.011870
v -0.402852 -0.080158 -0.014130
v -0.402852 -0.080158 0.011870
v -0.410746 -0.000014 -0.014130
v -0.410746 -0.000014 0.011870
v -0.402852 0.080129 -0.014130
v -0.402852 0.080129 0.011870
v -0.379475 0.157193 -0.014130
v -0.379475 0.157193 0.011870
v -0.341513 0.228215 -0.014130
v -0.341513 0.228215 0.011870
v -0.290424 0.290467 -0.014130
v -0.290424 0.290467 0.011870
v 0.157265 -0.379547 -0.014130
v 0.157265 -0.379547 0.011870
v 0.228287 -0.341584 -0.014130
v 0.228287 -0.341584 0.011870
v 0.290539 -0.290496 -0.014130
v 0.290539 -0.290496 0.011870
v 0.341628 -0.228244 -0.014130
v 0.341628 -0.228244 0.011870
v 0.379590 -0.157222 -0.014130
v 0.379590 -0.157222 0.011870
v 0.402967 -0.080158 -0.014130
v 0.402967 -0.080158 0.011870
v 0.410860 -0.000014 -0.014130
v 0.410860 -0.000014 0.011870
v 0.402967 0.080130 -0.014130
v 0.402967 0.080130 0.011870
v 0.379589 0.157193 -0.014130
v 0.379589 0.157193 0.011870
v 0.341627 0.228216 -0.014130
v 0.341627 0.228216 0.011870
v 0.290538 0.290467 -0.014130
v 0.290538 0.290467 0.011870
v 0.228287 0.341556 -0.014130
v 0.228287 0.341556 0.011870
v 0.157264 0.379518 -0.014130
v 0.157264 0.379518 0.011870
v 0.080200 0.402895 -0.014130
v 0.080200 0.402895 0.011870
v 0.000057 0.410788 -0.014130
v 0.000057 0.410788 0.011870
v -0.080086 0.402895 -0.014130
v -0.080086 0.402895 0.011870
v -0.157150 0.379518 -0.014130
v -0.157150 0.379518 0.011870
v -0.228173 0.341556 -0.014130
v -0.228173 0.341556 0.011870
vn -0.5709 -0.2249 0.7896
vn -0.5314 0.3068 0.7896
vn 0.0000 0.6136 0.7896
vn 0.0000 -0.6136 0.7896
vn -0.6136 -0.0000 0.7896
vn -0.0000 0.0000 -1.0000
vn 0.0000 -0.0000 1.0000
vn -0.0980 0.9952 0.0000
vn -0.7730 0.6344 0.0000
vn -0.9952 -0.0980 -0.0000
vn -0.6344 -0.7730 0.0000
vn 0.0980 -0.9952 0.0000
vn 0.7730 -0.6344 0.0000
vn 0.9952 0.0980 0.0000
vn 0.6344 0.7730 0.0000
vn -0.6344 0.7730 0.0000
vn -0.9952 0.0980 0.0000
vn -0.7730 -0.6344 0.0000
vn -0.0980 -0.9952 0.0000
vn 0.7730 0.6344 0.0000
vn 0.0980 0.9952 0.0000
vn 0.6344 -0.7730 0.0000
vn 0.9952 -0.0980 0.0000
vn -0.4714 0.8819 0.0000
vn -0.9569 0.2903 0.0000
vn -0.8819 -0.4714 0.0000
vn -0.2903 -0.9569 0.0000
vn 0.9569 -0.2903 0.0000
vn 0.8819 0.4714 0.0000
vn 0.2903 0.9569 0.0000
vn 0.4714 -0.8819 0.0000
vn -0.2903 0.9569 0.0000
vn -0.8819 0.4714 0.0000
vn -0.9569 -0.2903 0.0000
vn -0.4714 -0.8819 0.0000
vn 0.2903 -0.9569 0.0000
vn 0.8819 -0.4714 0.0000
vn 0.9569 0.2903 0.0000
vn 0.4714 0.8819 0.0000
vn 0.6136 -0.0000 0.7896
usemtl Gold.001
s off
f 9//1 11//1 10//1 8//1
f 11//2 13//2 12//2 10//2
f 13//3 15//3 14//3 12//3
f 17//4 19//4 18//4 16//4
f 19//5 21//5 20//5 18//5
f 21//4 9//4 8//4 20//4
f 49//6 58//6 59//6 48//6
f 45//6 62//6 63//6 44//6
f 41//6 66//6 67//6 40//6
f 37//6 70//6 71//6 36//6
f 33//6 74//6 75//6 32//6
f 29//6 78//6 79//6 28//6
f 25//6 82//6 83//6 24//6
f 38//6 69//6 70//6 37//6
f 50//6 57//6 58//6 49//6
f 46//6 61//6 62//6 45//6
f 42//6 65//6 66//6 41//6
f 34//6 73//6 74//6 33//6
f 30//6 77//6 78//6 29//6
f 26//6 81//6 82//6 25//6
f 22//6 85//6 54//6 53//6
f 43//6 64//6 65//6 42//6
f 39//6 68//6 69//6 38//6
f 51//6 56//6 57//6 50//6
f 47//6 60//6 61//6 46//6
f 35//6 72//6 73//6 34//6
f 31//6 76//6 77//6 30//6
f 27//6 80//6 81//6 26//6
f 23//6 84//6 85//6 22//6
f 48//6 59//6 60//6 47//6
f 44//6 63//6 64//6 43//6
f 40//6 67//6 68//6 39//6
f 52//6 55//6 56//6 51//6
f 36//6 71//6 72//6 35//6
f 32//6 75//6 76//6 31//6
f 28//6 79//6 80//6 27//6
f 24//6 83//6 84//6 23//6
f 53//6 54//6 55//6 52//6
f 113//7 112//7 123//7 122//7
f 109//7 108//7 127//7 126//7
f 105//7 104//7 131//7 130//7
f 101//7 100//7 135//7 134//7
f 97//7 96//7 139//7 138//7
f 93//7 92//7 143//7 142//7
f 89//7 88//7 147//7 146//7
f 102//7 101//7 134//7 133//7
f 114//7 113//7 122//7 121//7
f 110//7 109//7 126//7 125//7
f 106//7 105//7 130//7 129//7
f 98//7 97//7 138//7 137//7
f 94//7 93//7 142//7 141//7
f 90//7 89//7 146//7 145//7
f 86//7 117//7 118//7 149//7
f 107//7 106//7 129//7 128//7
f 103//7 102//7 133//7 132//7
f 115//7 114//7 121//7 120//7
f 111//7 110//7 125//7 124//7
f 99//7 98//7 137//7 136//7
f 95//7 94//7 141//7 140//7
f 91//7 90//7 145//7 144//7
f 87//7 86//7 149//7 148//7
f 112//7 111//7 124//7 123//7
f 108//7 107//7 128//7 127//7
f 104//7 103//7 132//7 131//7
f 116//7 115//7 120//7 119//7
f 100//7 99//7 136//7 135//7
f 96//7 95//7 140//7 139//7
f 92//7 91//7 144//7 143//7
f 88//7 87//7 148//7 147//7
f 117//7 116//7 119//7 118//7
f 53//8 52//8 116//8 117//8
f 49//9 48//9 112//9 113//9
f 45//10 44//10 108//10 109//10
f 41//11 40//11 104//11 105//11
f 37//12 36//12 100//12 101//12
f 33//13 32//13 96//13 97//13
f 29//14 28//14 92//14 93//14
f 25//15 24//15 88//15 89//15
f 50//16 49//16 113//16 114//16
f 46//17 45//17 109//17 110//17
f 42//18 41//18 105//18 106//18
f 38//19 37//19 101//19 102//19
f 26//20 25//20 89//20 90//20
f 22//21 53//21 117//21 86//21
f 34//22 33//22 97//22 98//22
f 30//23 29//23 93//23 94//23
f 51//24 50//24 114//24 115//24
f 47//25 46//25 110//25 111//25
f 43//26 42//26 106//26 107//26
f 39//27 38//27 102//27 103//27
f 31//28 30//28 94//28 95//28
f 27//29 26//29 90//29 91//29
f 23//30 22//30 86//30 87//30
f 35//31 34//31 98//31 99//31
f 52//32 51//32 115//32 116//32
f 48//33 47//33 111//33 112//33
f 44//34 43//34 107//34 108//34
f 40//35 39//35 103//35 104//35
f 36//36 35//36 99//36 100//36
f 32//37 31//37 95//37 96//37
f 28//38 27//38 91//38 92//38
f 24//39 23//39 87//39 88//39
f 4//7 3//7 2//7 1//7 7//7 6//7 5//7
f 201//35 147//35 148//35 203//35
f 199//11 146//11 147//11 201//11
f 197//18 145//18 146//18 199//18
f 195//26 144//26 145//26 197//26
f 193//34 143//34 144//34 195//34
f 191//10 142//10 143//10 193//10
f 189//17 141//17 142//17 191//17
f 187//25 140//25 141//25 189//25
f 185//33 139//33 140//33 187//33
f 183//9 138//9 139//9 185//9
f 181//16 137//16 138//16 183//16
f 179//24 136//24 137//24 181//24
f 151//32 135//32 136//32 179//32
f 153//8 134//8 135//8 151//8
f 155//21 133//21 134//21 153//21
f 157//30 132//30 133//30 155//30
f 159//39 131//39 132//39 157//39
f 161//15 130//15 131//15 159//15
f 163//20 129//20 130//20 161//20
f 165//29 128//29 129//29 163//29
f 167//38 127//38 128//38 165//38
f 169//14 126//14 127//14 167//14
f 171//23 125//23 126//23 169//23
f 173//28 124//28 125//28 171//28
f 175//37 123//37 124//37 173//37
f 177//13 122//13 123//13 175//13
f 213//22 121//22 122//22 177//22
f 211//31 120//31 121//31 213//31
f 209//36 119//36 120//36 211//36
f 207//12 118//12 119//12 209//12
f 205//19 149//19 118//19 207//19
f 203//27 148//27 149//27 205//27
f 83//35 200//35 202//35 84//35
f 82//11 198//11 200//11 83//11
f 81//18 196//18 198//18 82//18
f 80//26 194//26 196//26 81//26
f 79//34 192//34 194//34 80//34
f 78//10 190//10 192//10 79//10
f 77//17 188//17 190//17 78//17
f 76//25 186//25 188//25 77//25
f 75//33 184//33 186//33 76//33
f 74//9 182//9 184//9 75//9
f 73//16 180//16 182//16 74//16
f 72//24 178//24 180//24 73//24
f 71//32 150//32 178//32 72//32
f 70//8 152//8 150//8 71//8
f 69//21 154//21 152//21 70//21
f 68//30 156//30 154//30 69//30
f 67//39 158//39 156//39 68//39
f 66//15 160//15 158//15 67//15
f 65//20 162//20 160//20 66//20
f 64//29 164//29 162//29 65//29
f 63//38 166//38 164//38 64//38
f 62//14 168//14 166//14 63//14
f 61//23 170//23 168//23 62//23
f 60//28 172//28 170//28 61//28
f 59//37 174//37 172//37 60//37
f 58//13 176//13 174//13 59//13
f 57//22 212//22 176//22 58//22
f 56//31 210//31 212//31 57//31
f 55//36 208//36 210//36 56//36
f 54//12 206//12 208//12 55//12
f 85//19 204//19 206//19 54//19
f 84//27 202//27 204//27 85//27
f 14//40 15//40 5//40 4//40 17//40 16//40
f 16//7 18//7 155//7 153//7
f 153//7 151//7 16//7
f 179//7 16//7 151//7
f 155//7 18//7 157//7
f 157//7 18//7 159//7
f 159//7 18//7 161//7
f 18//7 20//7 163//7 161//7
f 20//7 8//7 165//7 163//7
f 165//7 8//7 167//7
f 167//7 8//7 169//7
f 8//7 10//7 171//7 169//7
f 10//7 12//7 173//7 171//7
f 173//7 12//7 175//7
f 175//7 12//7 177//7
f 177//7 12//7 213//7
f 213//7 12//7 211//7
f 211//7 12//7 209//7
f 12//7 14//7 207//7 209//7
f 207//7 14//7 205//7
f 205//7 14//7 203//7
f 203//7 14//7 201//7
f 201//7 14//7 199//7
f 199//7 14//7 197//7
f 197//7 14//7 195//7
f 195//7 14//7 193//7
f 193//7 14//7 191//7
f 191//7 14//7 189//7
f 189//7 14//7 187//7
f 181//7 16//7 179//7
f 183//7 16//7 181//7
f 185//7 16//7 183//7
f 14//7 16//7 185//7 187//7
f 200//6 198//6 196//6 194//6 192//6 190//6 188//6 186//6 184//6 182//6 180//6 178//6 150//6 152//6 154//6 156//6 158//6 160//6 162//6 164//6 166//6 168//6 170//6 172//6 174//6 176//6 212//6 210//6 208//6 206//6 204//6 202//6
